<?xml version="1.0" standalone="no"?>
<!DOCTYPE svg PUBLIC "-//W3C//DTD SVG 20010904//EN"
 "http://www.w3.org/TR/2001/REC-SVG-20010904/DTD/svg10.dtd">
<svg version="1.0" xmlns="http://www.w3.org/2000/svg"
 width="425.000000pt" height="425.000000pt" viewBox="0 0 425.000000 425.000000"
 preserveAspectRatio="xMidYMid meet">
<metadata>
Created by potrace 1.11, written by Peter Selinger 2001-2013
</metadata>
<g transform="translate(0.000000,425.000000) scale(0.100000,-0.100000)"
fill="#000000" stroke="none">
<path d="M1900 4179 c-153 -24 -256 -49 -345 -82 -16 -6 -34 -13 -40 -14 -47
-11 -56 -15 -213 -90 -62 -29 -144 -74 -183 -98 -38 -25 -72 -45 -75 -45 -3 0
-19 -13 -37 -30 -18 -16 -35 -30 -40 -30 -19 0 -237 -203 -319 -297 -20 -23
-39 -39 -42 -37 -3 2 -4 1 -1 -3 3 -3 -10 -25 -29 -47 -100 -123 -239 -368
-299 -526 -13 -36 -28 -74 -32 -85 -4 -11 -9 -24 -10 -30 -2 -5 -10 -35 -20
-65 -9 -30 -19 -64 -21 -75 -2 -11 -10 -49 -18 -85 -33 -149 -41 -242 -40
-455 0 -104 4 -210 8 -235 3 -25 9 -63 12 -85 3 -22 12 -71 21 -109 8 -37 16
-73 17 -80 28 -138 139 -409 223 -544 18 -29 33 -55 33 -59 0 -3 11 -21 25
-39 14 -18 25 -37 25 -42 0 -6 3 -12 8 -14 4 -2 30 -32 57 -68 72 -93 100
-125 190 -215 324 -322 764 -535 1205 -582 91 -10 384 -10 460 0 125 16 260
44 355 73 63 20 69 21 75 22 18 2 230 97 294 131 524 281 904 775 1047 1363
42 173 54 290 53 513 0 161 -4 219 -20 320 -131 807 -708 1466 -1477 1686 -54
15 -111 30 -125 33 -15 3 -38 8 -52 11 -14 3 -45 8 -70 11 -25 3 -70 9 -99 14
-99 14 -378 8 -501 -11z"/>
</g>
</svg>
